. 
 
 
http://www.torrentday.com :  Your Key To The Scene.


Now TvTeam with [No-RAR] Releases.



(((((((((((((= Enjoy No RAR releases =))))))))))))))))))))



...................................NFO:....................................

.      *********** ****    ****      ***      ******** *********** ****    *** **********
           *+*     +*+*+* *+*+*+   *+* *+*   *+*    *+*    *+*     *+*+*   *+* *+*        
           +*+     +*+ +*+*+ +*+  +*+   +*+  +*+           +*+     *+*+*+  +*+ +*+        
           +$+     +$+  +*+  +$+ +$++*++$++* *$*           +$+     +$+ +*+ +$+ +$++*++$  
           +$+     +$+       +$+ +$+     +$+ +$+   +$+$    +$+     +$+  +$+$+$ +$+        
           $+$     $+$       $+$ $+$     $+$ $+$    $+$    $+$     $+$   $+$+$ $+$        
       $$$$$$$$$$$ $$$       $$$ $$$     $$$  $$$$$$$$ $$$$$$$$$$$ $$$    $$$$ $$$$$$$$$$     
                                                



                           Another Fine Release Brought to you from - IMAGiNE                   
                                                 

********************************************************************************************************************                                
                                        Splice CAM XViD - IMAGiNE
********************************************************************************************************************

Ripper ...........: IMAGiNE                                        IMDB Rating.......:7.0/10                             
Video Codec.......: XVID                                         Release Date......:13/06/10
Audio Codec.......:AC3                                           Theatre Date......:04/06/10
Audio Bitrate.....:192                                              Runtime.......:1h 39mn
Subtitles.........:NIL                                                 Language..........:ENGLISH
Resolution...... 704 x 304                                      IMDb URL..........:http://www.imdb.com/title/tt1017460/


[color=yellow]DETAILS:[/color]

Video
ID                               : 0
Format                           : MPEG-4 Visual
Format profile                   : Advanced Simple@L5
Format settings, BVOP            : Yes
Format settings, QPel            : No
Format settings, GMC             : No warppoints
Format settings, Matrix          : Default (MPEG)
Muxing mode                      : Packed bitstream
Codec ID                         : XVID
Codec ID/Hint                    : XviD
Duration                         : 1h 39mn
Bit rate                         : 786 Kbps
Width                            : 704 pixels
Height                           : 304 pixels
Display aspect ratio             : 2.35
Frame rate                       : 23.976 fps
Resolution                       : 24 bits
Colorimetry                      : 4:2:0
Scan type                        : Progressive
Bits/(Pixel*Frame)               : 0.153
Stream size                      : 561 MiB (80%)
Writing library                  : XviD 1.2.1 (UTC 2008-12-04)

Audio
ID                               : 1
Format                           : AC-3
Format/Info                      : Audio Coding 3
Codec ID                         : 2000
Duration                         : 1h 39mn
Bit rate mode                    : Constant
Bit rate                         : 192 Kbps
Channel(s)                       : 2 channels
Channel positions                : L R
Sampling rate                    : 48.0 KHz
Stream size                      : 137 MiB (19%)
Alignment                        : Aligned on interleaves
Interleave, duration             : 42 ms (1.00 video frame)
Interleave, preload duration     : 512 ms


[color=yellow]NOTES:[/color]

IMAGiNE bringing you another release.....Splice

First sourced used was CAM DVDR VOBS-Seazer so many thanks for this :)
Now the quality was pretty poor but watchable if you watch cam releases so .....
The video was dull,bad AR,major interlace issues,lacked colour and more.....the audio not too bad for
cam audio,at least you can hear whats being said.
Well worked done ,we just ripped the dvdr and fixed what we could and most things were fixable,but the interlace 
it had was really weird....guessing the original encode is fooked up.But we did remove alot of it compare to the dvdr
version but not all.

Anyway Enjoy :)


[color=yellow]SCREENS:[/color]

[img]http://imagine.takagari.com/splice/vlcsnap-411387.png[/img]
[img]http://imagine.takagari.com/splice/vlcsnap-411731.png[/img]
[img]http://imagine.takagari.com/splice/vlcsnap-411907.png[/img]
[img]http://imagine.takagari.com/splice/vlcsnap-412583.png[/img]


[color=yellow]GREETS:[/color]

FLAWL3SS,ViSiON,FUSiON,Rx,SecretMyth,BirdFlu,ELEKTRI4KA and Autotron
And to all the other p2p grps past and present 

Special thanks to Python-Lair for the server :)
And special thanks to supreme-speeds.com for the ripbox :)
Also to The Scene Nation for all their help :)

[COLOR=RED]Looking for these,syncers,cammers,silver supplier.....Have anything to offer????......
Contact us imaginegroup@hushmail.com[/COLOR]